<svg width="380" height="380" xmlns="http://www.w3.org/2000/svg">
<defs>
<circle id="climate_temperate" cx="5" cy="5" r="3" style="opacity:0.1;fill:#90ee90"/>
<circle id="climate_tropical" cx="5" cy="5" r="3" style="opacity:0.15;fill:#ffa500"/>
<circle id="climate_arid" cx="5" cy="5" r="3" style="opacity:0.2;fill:#daa520"/>
<circle id="climate_frozen" cx="5" cy="5" r="3" style="opacity:0.15;fill:#87ceeb"/>
</defs>
<rect width="380" height="380" fill="white"/>

        <g id="title">
            <text x="40" y="25" font-size="24" font-weight="bold" fill="#333">
                CONQUEST MAP
            </text>
            <text x="40" y="45" font-size="12" fill="#666">
                Seed: 222 | Size: 5×5 | Territories: 6
            </text>
        </g>
        
<rect x="40" y="90" width="300" height="300" fill="#f5f5f5" stroke="#ccc" stroke-width="1"/>
<rect x="40" y="90" width="60" height="60" fill="#1e90ff" stroke="#cccccc" stroke-width="0.5"/>
<circle cx="70.0" cy="120.0" r="20.0" style="opacity:0.15;fill:#87ceeb"/>
<text x="43" y="102" font-size="8" fill="#999" opacity="0.5">0,0</text>
<rect x="40" y="150" width="60" height="60" fill="#1e90ff" stroke="#cccccc" stroke-width="0.5"/>
<circle cx="70.0" cy="180.0" r="20.0" style="opacity:0.1;fill:#90ee90"/>
<text x="43" y="162" font-size="8" fill="#999" opacity="0.5">0,1</text>
<rect x="40" y="210" width="60" height="60" fill="#90ee90" stroke="#cccccc" stroke-width="0.5"/>
<circle cx="70.0" cy="240.0" r="20.0" style="opacity:0.15;fill:#ffa500"/>
<text x="43" y="222" font-size="8" fill="#999" opacity="0.5">0,2</text>
<rect x="40" y="270" width="60" height="60" fill="#8b7355" stroke="#cccccc" stroke-width="0.5"/>
<circle cx="70.0" cy="300.0" r="20.0" style="opacity:0.15;fill:#ffa500"/>
<text x="43" y="282" font-size="8" fill="#999" opacity="0.5">0,3</text>
<rect x="40" y="330" width="60" height="60" fill="#90ee90" stroke="#cccccc" stroke-width="0.5"/>
<circle cx="70.0" cy="360.0" r="20.0" style="opacity:0.2;fill:#daa520"/>
<text x="43" y="342" font-size="8" fill="#999" opacity="0.5">0,4</text>
<rect x="100" y="90" width="60" height="60" fill="#90ee90" stroke="#cccccc" stroke-width="0.5"/>
<circle cx="130.0" cy="120.0" r="20.0" style="opacity:0.15;fill:#87ceeb"/>
<text x="103" y="102" font-size="8" fill="#999" opacity="0.5">1,0</text>
<rect x="100" y="150" width="60" height="60" fill="#1e90ff" stroke="#cccccc" stroke-width="0.5"/>
<circle cx="130.0" cy="180.0" r="20.0" style="opacity:0.15;fill:#87ceeb"/>
<text x="103" y="162" font-size="8" fill="#999" opacity="0.5">1,1</text>
<rect x="100" y="210" width="60" height="60" fill="#1e90ff" stroke="#cccccc" stroke-width="0.5"/>
<circle cx="130.0" cy="240.0" r="20.0" style="opacity:0.1;fill:#90ee90"/>
<text x="103" y="222" font-size="8" fill="#999" opacity="0.5">1,2</text>
<rect x="100" y="270" width="60" height="60" fill="#90ee90" stroke="#cccccc" stroke-width="0.5"/>
<circle cx="130.0" cy="300.0" r="20.0" style="opacity:0.1;fill:#90ee90"/>
<text x="103" y="282" font-size="8" fill="#999" opacity="0.5">1,3</text>
<rect x="100" y="330" width="60" height="60" fill="#8b7355" stroke="#cccccc" stroke-width="0.5"/>
<circle cx="130.0" cy="360.0" r="20.0" style="opacity:0.15;fill:#ffa500"/>
<text x="103" y="342" font-size="8" fill="#999" opacity="0.5">1,4</text>
<rect x="160" y="90" width="60" height="60" fill="#8b7355" stroke="#cccccc" stroke-width="0.5"/>
<circle cx="190.0" cy="120.0" r="20.0" style="opacity:0.15;fill:#87ceeb"/>
<text x="163" y="102" font-size="8" fill="#999" opacity="0.5">2,0</text>
<rect x="160" y="150" width="60" height="60" fill="#90ee90" stroke="#cccccc" stroke-width="0.5"/>
<circle cx="190.0" cy="180.0" r="20.0" style="opacity:0.1;fill:#90ee90"/>
<text x="163" y="162" font-size="8" fill="#999" opacity="0.5">2,1</text>
<rect x="160" y="210" width="60" height="60" fill="#1e90ff" stroke="#cccccc" stroke-width="0.5"/>
<circle cx="190.0" cy="240.0" r="20.0" style="opacity:0.1;fill:#90ee90"/>
<text x="163" y="222" font-size="8" fill="#999" opacity="0.5">2,2</text>
<rect x="160" y="270" width="60" height="60" fill="#90ee90" stroke="#cccccc" stroke-width="0.5"/>
<circle cx="190.0" cy="300.0" r="20.0" style="opacity:0.15;fill:#ffa500"/>
<text x="163" y="282" font-size="8" fill="#999" opacity="0.5">2,3</text>
<rect x="160" y="330" width="60" height="60" fill="#90ee90" stroke="#cccccc" stroke-width="0.5"/>
<circle cx="190.0" cy="360.0" r="20.0" style="opacity:0.15;fill:#ffa500"/>
<text x="163" y="342" font-size="8" fill="#999" opacity="0.5">2,4</text>
<rect x="220" y="90" width="60" height="60" fill="#90ee90" stroke="#cccccc" stroke-width="0.5"/>
<circle cx="250.0" cy="120.0" r="20.0" style="opacity:0.15;fill:#87ceeb"/>
<text x="223" y="102" font-size="8" fill="#999" opacity="0.5">3,0</text>
<rect x="220" y="150" width="60" height="60" fill="#8b7355" stroke="#cccccc" stroke-width="0.5"/>
<circle cx="250.0" cy="180.0" r="20.0" style="opacity:0.1;fill:#90ee90"/>
<text x="223" y="162" font-size="8" fill="#999" opacity="0.5">3,1</text>
<rect x="220" y="210" width="60" height="60" fill="#90ee90" stroke="#cccccc" stroke-width="0.5"/>
<circle cx="250.0" cy="240.0" r="20.0" style="opacity:0.1;fill:#90ee90"/>
<text x="223" y="222" font-size="8" fill="#999" opacity="0.5">3,2</text>
<rect x="220" y="270" width="60" height="60" fill="#8b7355" stroke="#cccccc" stroke-width="0.5"/>
<circle cx="250.0" cy="300.0" r="20.0" style="opacity:0.15;fill:#ffa500"/>
<text x="223" y="282" font-size="8" fill="#999" opacity="0.5">3,3</text>
<rect x="220" y="330" width="60" height="60" fill="#90ee90" stroke="#cccccc" stroke-width="0.5"/>
<circle cx="250.0" cy="360.0" r="20.0" style="opacity:0.2;fill:#daa520"/>
<text x="223" y="342" font-size="8" fill="#999" opacity="0.5">3,4</text>
<rect x="280" y="90" width="60" height="60" fill="#90ee90" stroke="#cccccc" stroke-width="0.5"/>
<circle cx="310.0" cy="120.0" r="20.0" style="opacity:0.15;fill:#87ceeb"/>
<text x="283" y="102" font-size="8" fill="#999" opacity="0.5">4,0</text>
<rect x="280" y="150" width="60" height="60" fill="#90ee90" stroke="#cccccc" stroke-width="0.5"/>
<circle cx="310.0" cy="180.0" r="20.0" style="opacity:0.15;fill:#87ceeb"/>
<text x="283" y="162" font-size="8" fill="#999" opacity="0.5">4,1</text>
<rect x="280" y="210" width="60" height="60" fill="#8b7355" stroke="#cccccc" stroke-width="0.5"/>
<circle cx="310.0" cy="240.0" r="20.0" style="opacity:0.1;fill:#90ee90"/>
<text x="283" y="222" font-size="8" fill="#999" opacity="0.5">4,2</text>
<rect x="280" y="270" width="60" height="60" fill="#90ee90" stroke="#cccccc" stroke-width="0.5"/>
<circle cx="310.0" cy="300.0" r="20.0" style="opacity:0.1;fill:#90ee90"/>
<text x="283" y="282" font-size="8" fill="#999" opacity="0.5">4,3</text>
<rect x="280" y="330" width="60" height="60" fill="#8b7355" stroke="#cccccc" stroke-width="0.5"/>
<circle cx="310.0" cy="360.0" r="20.0" style="opacity:0.15;fill:#ffa500"/>
<text x="283" y="342" font-size="8" fill="#999" opacity="0.5">4,4</text>
<line x1="100" y1="270" x2="100" y2="330" stroke="#333333" stroke-width="2"/>
<line x1="40" y1="330" x2="100" y2="330" stroke="#333333" stroke-width="2"/>
<line x1="160" y1="90" x2="160" y2="150" stroke="#333333" stroke-width="2"/>
<line x1="160" y1="210" x2="160" y2="270" stroke="#333333" stroke-width="2"/>
<line x1="100" y1="270" x2="160" y2="270" stroke="#333333" stroke-width="2"/>
<line x1="160" y1="150" x2="220" y2="150" stroke="#333333" stroke-width="2"/>
<line x1="220" y1="150" x2="220" y2="210" stroke="#333333" stroke-width="2"/>
<line x1="160" y1="210" x2="220" y2="210" stroke="#333333" stroke-width="2"/>
<line x1="220" y1="210" x2="220" y2="270" stroke="#333333" stroke-width="2"/>
<line x1="220" y1="210" x2="280" y2="210" stroke="#333333" stroke-width="2"/>
<line x1="220" y1="270" x2="280" y2="270" stroke="#333333" stroke-width="2"/>
<line x1="280" y1="270" x2="280" y2="330" stroke="#333333" stroke-width="2"/>
<line x1="280" y1="330" x2="280" y2="390" stroke="#333333" stroke-width="2"/>
<line x1="280" y1="210" x2="340" y2="210" stroke="#333333" stroke-width="2"/>
<line x1="280" y1="270" x2="340" y2="270" stroke="#333333" stroke-width="2"/>
<line x1="40" y1="90" x2="40" y2="390" stroke="#cccccc" stroke-width="0.5"/>
<line x1="100" y1="90" x2="100" y2="390" stroke="#cccccc" stroke-width="0.5"/>
<line x1="160" y1="90" x2="160" y2="390" stroke="#cccccc" stroke-width="0.5"/>
<line x1="220" y1="90" x2="220" y2="390" stroke="#cccccc" stroke-width="0.5"/>
<line x1="280" y1="90" x2="280" y2="390" stroke="#cccccc" stroke-width="0.5"/>
<line x1="340" y1="90" x2="340" y2="390" stroke="#cccccc" stroke-width="0.5"/>
<line x1="40" y1="90" x2="340" y2="90" stroke="#cccccc" stroke-width="0.5"/>
<line x1="40" y1="150" x2="340" y2="150" stroke="#cccccc" stroke-width="0.5"/>
<line x1="40" y1="210" x2="340" y2="210" stroke="#cccccc" stroke-width="0.5"/>
<line x1="40" y1="270" x2="340" y2="270" stroke="#cccccc" stroke-width="0.5"/>
<line x1="40" y1="330" x2="340" y2="330" stroke="#cccccc" stroke-width="0.5"/>
<line x1="40" y1="390" x2="340" y2="390" stroke="#cccccc" stroke-width="0.5"/>
<g id="legend">
<text x="40" y="410" font-size="12" font-weight="bold" fill="#333">Legend:</text>
<rect x="40" y="422" width="12" height="12" fill="#1e90ff" stroke="#666" stroke-width="0.5"/>
<text x="60" y="430" font-size="11" fill="#333">Water</text>
<rect x="160" y="422" width="12" height="12" fill="#90ee90" stroke="#666" stroke-width="0.5"/>
<text x="180" y="430" font-size="11" fill="#333">Plains</text>
<rect x="280" y="422" width="12" height="12" fill="#228b22" stroke="#666" stroke-width="0.5"/>
<text x="300" y="430" font-size="11" fill="#333">Forest</text>
<rect x="400" y="422" width="12" height="12" fill="#8b7355" stroke="#666" stroke-width="0.5"/>
<text x="420" y="430" font-size="11" fill="#333">Mountain</text>
<text x="40" y="450" font-size="11" fill="#666">Climate: </text>
<text x="120" y="450" font-size="10" fill="#666">Temperate</text>
<text x="220" y="450" font-size="10" fill="#666">Tropical</text>
<text x="320" y="450" font-size="10" fill="#666">Arid</text>
<text x="420" y="450" font-size="10" fill="#666">Frozen</text>
</g>
</svg>